<?xml version="1.0" standalone="no"?>
<!DOCTYPE svg PUBLIC "-//W3C//DTD SVG 20010904//EN"
 "http://www.w3.org/TR/2001/REC-SVG-20010904/DTD/svg10.dtd">
<svg version="1.0" xmlns="http://www.w3.org/2000/svg"
 width="500.000000pt" height="500.000000pt" viewBox="0 0 500.000000 500.000000"
 preserveAspectRatio="xMidYMid meet">
<metadata>
Created by potrace 1.14, written by Peter Selinger 2001-2017
</metadata>
<g transform="translate(0.000000,500.000000) scale(0.100000,-0.100000)"
fill="#000000" stroke="none">
<path d="M2285 3655 c-454 -87 -814 -428 -925 -875 -11 -43 -22 -94 -25 -112
-5 -43 -7 -287 -1 -313 2 -11 7 -40 11 -65 19 -129 122 -380 181 -444 28 -30
95 -50 141 -43 79 13 118 74 108 166 -6 50 -6 51 22 52 15 0 40 2 54 4 23 3
28 -1 33 -27 29 -145 -58 -277 -198 -304 l-39 -7 44 -40 c108 -98 296 -216
387 -242 l22 -6 0 203 c1 221 7 266 48 347 123 245 459 303 657 114 57 -55 85
-97 111 -171 20 -59 23 -85 24 -271 0 -113 2 -206 3 -207 1 -2 37 15 80 36
100 50 206 124 284 198 l62 59 0 396 c-1 218 -5 416 -10 439 -27 122 -115 235
-225 288 -34 17 -64 30 -67 30 -3 0 4 -28 15 -62 40 -129 27 -297 -33 -426
-37 -80 -129 -202 -152 -202 -2 0 -18 18 -36 40 l-32 40 40 42 c52 53 107 166
121 247 18 103 1 221 -48 316 -54 108 -184 216 -294 245 -71 20 -80 21 -154
21 -152 -1 -308 -81 -397 -205 -13 -18 -15 -18 -55 9 -23 15 -42 34 -42 41 0
8 32 46 71 85 l71 72 -69 -5 c-199 -14 -349 -213 -358 -473 -3 -99 11 -169 65
-317 34 -94 39 -98 95 -74 29 12 30 12 52 -33 21 -43 21 -47 5 -59 -34 -26
-107 -41 -212 -43 -79 -2 -133 9 -212 43 -40 17 -46 23 -38 38 13 23 67 48 99
45 36 -4 103 -15 119 -20 15 -5 17 -15 -22 100 -51 150 -65 225 -61 322 15
390 307 660 613 564 58 -18 61 -18 133 1 57 15 97 18 174 15 167 -7 298 -66
415 -187 49 -50 61 -58 115 -68 91 -18 198 -75 264 -141 65 -65 103 -128 134
-221 20 -61 21 -86 21 -402 1 -228 4 -338 11 -338 15 0 109 192 135 275 36
119 48 203 48 354 1 158 -12 244 -53 369 -105 313 -323 557 -625 699 -64 30
-177 69 -229 78 -14 2 -51 9 -81 15 -70 13 -316 10 -395 -5z m-357 -889 c22
-21 18 -67 -7 -87 -41 -33 -103 1 -97 53 4 32 3 31 31 46 23 12 54 7 73 -12z"/>
<path d="M2416 2049 c-66 -25 -105 -53 -144 -105 -55 -71 -62 -111 -62 -360
l0 -222 28 -6 c126 -25 164 -28 299 -24 91 3 176 11 221 22 l73 18 -1 228 -1
228 -28 58 c-54 112 -151 176 -271 180 -44 1 -82 -4 -114 -17z"/>
<path d="M985 1283 c-45 -11 -70 -56 -60 -105 5 -22 21 -37 61 -60 37 -20 54
-36 52 -47 -4 -19 -49 -26 -87 -13 -25 9 -27 7 -29 -19 -3 -34 20 -49 72 -49
47 0 81 17 95 47 23 51 4 91 -60 124 -67 34 -61 75 9 65 17 -3 32 -2 33 2 0 4
2 15 4 25 6 29 -36 43 -90 30z"/>
<path d="M1150 1139 l0 -149 75 0 75 0 0 30 c0 29 -1 30 -48 30 -51 0 -49 -2
-43 52 1 4 18 8 39 10 37 3 38 5 33 48 0 6 -7 10 -13 9 -7 -1 -25 -1 -39 0
-22 1 -25 5 -21 30 4 26 7 28 45 27 40 -1 42 0 42 29 l0 30 -72 1 -73 1 0
-148z"/>
<path d="M1359 1281 c-5 -25 -3 -274 2 -282 3 -6 17 -9 30 -7 22 3 24 8 24 53
0 71 23 71 59 0 24 -48 31 -55 57 -55 36 0 36 7 -1 69 -27 48 -28 51 -11 60
10 6 24 24 31 40 15 38 -2 96 -33 113 -23 12 -156 20 -158 9z m122 -60 c13 -2
17 -39 6 -50 -6 -6 -25 -11 -42 -11 -29 0 -31 2 -29 33 1 17 3 33 3 34 1 2 43
-2 62 -6z"/>
<path d="M1610 1138 l0 -148 75 0 c41 0 75 3 76 8 6 55 8 52 -43 52 -47 0 -48
1 -48 30 0 28 2 30 40 30 38 0 40 2 40 31 0 29 -1 30 -40 26 -39 -4 -40 -3
-40 28 0 24 4 32 18 32 63 0 69 3 70 31 l1 28 -75 0 -74 0 0 -148z"/>
<path d="M1818 1258 c-2 -18 -2 -86 0 -150 l3 -118 29 0 c28 0 28 0 28 63 0
106 -1 103 24 71 13 -16 49 -56 80 -89 45 -47 58 -56 58 -40 1 28 1 256 1 277
-1 10 -8 15 -18 13 -10 -2 -24 -4 -31 -4 -9 -1 -12 -20 -9 -72 2 -38 0 -72 -4
-75 -4 -2 -38 32 -75 76 -38 44 -72 80 -76 80 -4 0 -8 -15 -10 -32z"/>
<path d="M2110 1139 l0 -149 55 0 c111 0 167 45 173 140 6 99 -47 149 -164
155 l-64 4 0 -150z m148 56 c47 -55 12 -145 -58 -145 l-30 0 0 89 0 90 33 -4
c18 -3 41 -15 55 -30z"/>
<path d="M2405 1283 c-8 -2 -11 -136 -6 -275 1 -13 9 -18 29 -18 l29 0 -1 148
c-1 140 -2 147 -21 148 -11 0 -24 -1 -30 -3z"/>
<path d="M2527 1281 c-3 -6 -1 -249 2 -280 1 -10 18 -12 77 -9 69 3 79 6 100
31 27 32 31 64 10 92 -10 14 -11 25 -4 38 24 46 10 105 -29 122 -22 10 -153
15 -156 6z m126 -60 c4 0 7 -12 7 -26 0 -22 -4 -25 -38 -25 -36 0 -39 2 -36
28 1 15 2 28 3 29 1 1 36 -2 64 -6z m11 -134 c14 -22 -6 -37 -50 -37 -28 0
-31 3 -28 28 1 15 2 28 3 30 4 11 66 -6 75 -21z"/>
<path d="M3000 1283 c-35 -7 -89 -50 -102 -81 -15 -40 -11 -109 9 -143 32 -56
115 -83 177 -59 24 9 26 14 26 75 l0 66 -27 -3 c-25 -3 -28 -7 -31 -45 -3 -38
-6 -43 -28 -43 -53 0 -85 61 -68 127 8 30 67 56 110 48 32 -6 34 -5 34 23 0
40 -25 48 -100 35z"/>
<path d="M3179 1286 c-1 -1 -2 -68 -3 -149 l-1 -148 30 3 c29 3 30 5 30 53 0
71 22 71 59 0 26 -50 31 -55 62 -55 l33 0 -29 50 c-35 60 -36 64 -10 90 40 40
33 116 -14 143 -15 8 -148 19 -157 13z m122 -65 c4 -1 10 -8 13 -17 9 -24 -12
-44 -48 -44 -30 0 -32 2 -30 33 1 17 3 32 3 33 1 1 49 -3 62 -5z"/>
<path d="M3430 1139 l0 -149 74 0 c56 0 75 4 80 15 11 30 -5 45 -50 45 -42 0
-44 1 -44 30 0 28 2 30 40 30 38 0 40 2 40 29 0 29 -2 30 -40 28 -40 -3 -41
-2 -38 28 2 24 8 30 28 31 62 3 61 3 58 31 -3 27 -4 28 -75 29 l-73 2 0 -149z"/>
<path d="M3643 1277 c-5 -8 -6 -96 -3 -264 0 -22 4 -23 75 -23 l75 0 0 30 c0
29 -2 30 -44 30 -45 0 -57 10 -48 42 3 11 16 18 41 20 35 3 38 6 32 48 0 6
-16 10 -35 10 -19 0 -36 6 -39 13 -7 19 6 42 26 43 9 1 28 2 42 3 20 1 25 6
25 26 0 14 -3 26 -7 27 -31 6 -135 3 -140 -5z"/>
<path d="M3849 1283 c-5 -30 -3 -276 2 -284 3 -6 17 -9 30 -7 23 3 24 7 24 70
0 36 3 69 6 72 3 4 22 -13 42 -36 19 -24 52 -61 74 -83 l38 -40 3 77 c2 43 2
113 0 155 -3 76 -4 78 -28 78 -24 0 -25 -2 -30 -82 l-5 -83 -70 85 c-66 80
-83 95 -86 78z"/>
</g>
</svg>
